<svg width="24" height="24" viewBox="0 0 24 24" fill="none" xmlns="http://www.w3.org/2000/svg">
<path 
fill-rule="evenodd" 
clip-rule="evenodd" 
d="M24 12C24 18.6274 18.6274 24 12 24C5.37258 24 0 18.6274 0 12C0 5.37258 5.37258 0 12 0C18.6274 0 24 5.37258 24 12ZM12 5.33333C12.6667 5.33333 13.3333 6 13.3333 6.66667V10.6667H17.3333C18 10.6667 18.6667 11.3333 18.6667 12C18.6667 12.6667 18 13.3333 17.3333 13.3333H13.3333V17.3333C13.3333 18 12.6667 18.6667 12 18.6667C11.3333 18.6667 10.6667 18 10.6667 17.3333V13.3333H6.66667C6 13.3333 5.33333 12.6667 5.33333 12C5.33333 11.3333 6 10.6667 6.66667 10.6667H10.6667V6.66667C10.6667 6 11.3333 5.33333 12 5.33333Z" 
fill="black" 
fill-opacity="0.85098"/>
</svg>